<svg id="Layer_1" data-name="Layer 1" xmlns="http://www.w3.org/2000/svg" viewBox="0 0 373 239.06"><defs><style>.cls-1{fill:#284493;}</style></defs><path class="cls-1" d="M827.37,272.92,472.44,258l5.65,95.92,13-.85-5-85L819,280.94q3.9,66.38,7.81,132.77L497.78,466,494,401.41l-13.05.84,4.36,74L836,419.32Q831.68,346.12,827.37,272.92Z" transform="translate(-463 -258)"/><path class="cls-1" d="M699.61,462.47Z" transform="translate(-463 -258)"/><path class="cls-1" d="M475.49,395.71l-8.81,1L463,359.3l8.76-.59Z" transform="translate(-463 -258)"/><path class="cls-1" d="M495.11,393.57q-7.08.75-14.15,1.53l-3.69-36.77,14.19-.95Z" transform="translate(-463 -258)"/><path class="cls-1" d="M515.28,391.37,500.6,393,497,357l14.75-1Z" transform="translate(-463 -258)"/><path class="cls-1" d="M730.46,380.94a39,39,0,0,1-27.58,11.73c-14.47.23-27.15-7.14-33.64-18.14Q595,382.67,520.77,390.75l-3.54-35.12q74.87-5,149.75-10.1c5.27-13.1,18.76-22.51,34.72-22.76a39.63,39.63,0,0,1,23,6.84l-29,2.06-13.88,26.84,18.08,24.58Z" transform="translate(-463 -258)"/><polygon class="cls-1" points="184.38 198.93 243.87 189.25 233.71 222.46 264.18 225.22 203.24 239.06 180.03 233.52 184.38 198.93"/></svg>