<svg xmlns="http://www.w3.org/2000/svg" xmlns:xlink="http://www.w3.org/1999/xlink" viewBox="0 0 593.94 589.02"><defs><style>.cls-1{fill:none;}.cls-2{fill:#002855;}.cls-3{clip-path:url(#clip-path);}.cls-4,.cls-6{font-size:12px;font-family:Roboto-Regular, Roboto;}.cls-4{fill:#f9f9f9;}.cls-5{letter-spacing:-0.01em;}.cls-6{fill:#fff;}.cls-7{letter-spacing:-0.01em;}.cls-8{letter-spacing:-0.06em;}.cls-9{letter-spacing:-0.06em;}</style><clipPath id="clip-path" transform="translate(0 51.5)"><circle class="cls-1" cx="297.28" cy="153.5" r="153.5"/></clipPath></defs><g id="Layer_2" data-name="Layer 2"><g id="Layer_1-2" data-name="Layer 1"><path class="cls-2" d="M178.78,223c189.76,21.08,341-15,341-15,14.28-3.41,34.91-8.85,51,2,34.87,23.51,26,108.43,2,163-47.33,107.56-181.1,159.82-288,164-34,1.33-194.48,7.6-258-102-43.6-75.22-32.35-189.17,22-223C77.84,193.91,95.15,213.71,178.78,223Z" transform="translate(0 51.5)"/><g class="cls-3"><image width="2124" height="2170" transform="translate(96.28) scale(0.19)" xlink:href="../Persona-1.jpg"/></g><text class="cls-4" transform="translate(139.57 375.07)">An<tspan class="cls-5" x="14.45" y="0">t</tspan><tspan x="18.25" y="0">on</tspan></text><text class="cls-6" transform="translate(45.09 374.85)">N<tspan class="cls-7" x="8.55" y="0">a</tspan><tspan x="14.99" y="0">vn....</tspan></text><text class="cls-4" transform="translate(139.19 393.19)">19</text><text class="cls-6" transform="translate(44.72 392.97)">Alde<tspan class="cls-8" x="23.87" y="0">r</tspan><tspan x="27.21" y="0">....</tspan></text><text class="cls-6" transform="translate(44.6 410.87)">Beskæftigelse....</text><text class="cls-4" transform="translate(139.52 410.87)">Studerende</text><text class="cls-4" transform="translate(95.87 346.71)">INFO</text><text class="cls-6" transform="translate(276.91 437.65)">BIO</text><text class="cls-4" transform="translate(207.62 466.77)">An<tspan class="cls-5" x="14.45" y="0">t</tspan><tspan x="18.25" y="0">on er en gennemsnitslig </tspan><tspan x="0" y="14.4">studerende teenage</tspan><tspan class="cls-8" x="105.86" y="14.4">r</tspan><tspan x="109.2" y="14.4">, der elsker </tspan><tspan x="0" y="28.8">at game i sin fritid. Han har en </tspan><tspan x="0" y="43.2">lille interesse i hardware.</tspan></text><text class="cls-6" transform="translate(450.36 351.16)">PROBLEM<tspan class="cls-9" x="54.43" y="0">A</tspan><tspan x="61.51" y="0">TIK</tspan></text><text class="cls-4" transform="translate(411.59 374.04)">An<tspan class="cls-5" x="14.45" y="0">t</tspan><tspan x="18.25" y="0">on har længe ville prøve at </tspan><tspan x="0" y="14.4">bygge sin egen pc, men han </tspan><tspan x="0" y="28.8">ved ikke helt h</tspan><tspan class="cls-7" x="75.69" y="28.8">v</tspan><tspan x="81.42" y="28.8">ordan man gø</tspan><tspan class="cls-8" x="155.37" y="28.8">r</tspan><tspan x="158.71" y="28.8">.</tspan></text></g></g></svg>