<svg id="Layer_1" data-name="Layer 1" xmlns="http://www.w3.org/2000/svg" viewBox="0 0 109 109"><defs><style>.cls-1{fill:#00a21b;}.cls-2{fill:#ccc;}.cls-3{fill:#b2b2b2;}.cls-4{fill:#eae357;}</style></defs><path class="cls-1" d="M1026.43,521.88a2.68,2.68,0,0,0,2.67,2.67V607.3h-109V524.54a2.67,2.67,0,0,0,0-5.32V498.3h109v20.91A2.68,2.68,0,0,0,1026.43,521.88Z" transform="translate(-920.1 -498.3)"/><path class="cls-2" d="M1025.4,518.21v66.34a17.75,17.75,0,0,1-17.75,17.75h-17a6.36,6.36,0,0,0-6.16-4.79H967.39a6.36,6.36,0,0,0-6.16,4.79H941.31a17.75,17.75,0,0,1-17.75-17.75V518.21a17.75,17.75,0,0,1,17.75-17.75h66.34A17.75,17.75,0,0,1,1025.4,518.21Z" transform="translate(-920.1 -498.3)"/><rect class="cls-3" x="8.45" y="7.12" width="92.09" height="92.09" rx="17.75"/><polygon class="cls-4" points="1.33 98.77 1.33 107.67 10.23 107.67 1.33 98.77"/></svg>