<svg id="Layer_1" data-name="Layer 1" xmlns="http://www.w3.org/2000/svg" viewBox="0 0 50.72 224.07"><defs><style>.cls-1{fill:#fdb;}.cls-2{fill:#fcc;}</style></defs><path class="cls-1" d="M999.56,665.29h-50.5c1.31-15.61,3.26-40.77,5.06-72.14,1.28-22.61,3.44-45.17,4.32-67.8,1.75-45.14,0-65.17,14.44-76.47a32.32,32.32,0,0,1,9.42-5.17l-.28.22c-3.09,2.56-3.27,6.11-3.51,11a25.47,25.47,0,0,0,3.14,14.66c3,5.13,8.94,11.16,12,10,1.23-.47,1.76-2.54,2.27-6.48-.78,19.82.83,39.66.73,59.5-.1,20.67,1,21.48,2.16,53.38C999.51,604.44,1000.14,631.57,999.56,665.29Z" transform="translate(-949.06 -441.22)"/><path class="cls-2" d="M997,458.38a101.8,101.8,0,0,1-.6,10.47c-.17,1.59-.32,3-.49,4.21-.51,3.94-1,6-2.27,6.48-3.08,1.17-9-4.86-12-10a25.47,25.47,0,0,1-3.14-14.66c.24-4.85.42-8.4,3.51-11l.28-.22c3.6-2.76,9.65-3.4,12.79-1C997.12,444.18,997.12,448.93,997,458.38Z" transform="translate(-949.06 -441.22)"/></svg>